Inverse Dynamics Generalized Forces
version=1
nRows=11
nColumns=34
inDegrees=no
endheader 
time	pelvis_tilt_moment	pelvis_list_moment	pelvis_rotation_moment	pelvis_tx_force	pelvis_ty_force	pelvis_tz_force	hip_flexion_l_moment	hip_adduction_l_moment	hip_rotation_l_moment	hip_flexion_r_moment	hip_adduction_r_moment	hip_rotation_r_moment	knee_angle_l_moment	knee_angle_r_moment	ankle_angle_l_moment	ankle_angle_r_moment	subtalar_angle_l_moment	subtalar_angle_r_moment	mtp_angle_l_moment	mtp_angle_r_moment	lumbar_extension_moment	lumbar_bending_moment	lumbar_rotation_moment	arm_flex_l_moment	arm_add_l_moment	arm_rot_l_moment	arm_flex_r_moment	arm_add_r_moment	arm_rot_r_moment	elbow_flex_l_moment	elbow_flex_r_moment	pro_sup_l_moment	pro_sup_r_moment	
          0.35200000	          0.00025986	         -0.00004384	          0.00009005	         -0.00072120	          0.00063160	          0.00000530	          6.41416062	        -81.62528523	        -51.23293868	       -140.36072852	        -39.56663912	        -16.40069279	         99.03029899	        -81.21357188	          4.81133823	          2.52684998	          1.40075630	          0.94321912	         -0.30793082	         -0.11312297	        150.69443099	         44.41435895	        -17.71766886	        152.38125402	         -4.93411641	          6.58003514	        150.62233924	        -23.07720986	         33.47236301	        -13.23556636	        -30.38067243	         -1.51012337	         -1.75729576	
          0.37290909	         -0.00001829	         -0.00000463	         -0.00001521	          0.00007345	          0.00011418	         -0.00002779	          8.91321970	        -16.21007035	          4.86224682	       -131.69293565	        -44.56430168	         58.92154896	         36.37267886	        -40.11784578	         -2.40471115	         -2.75906792	          0.33234451	         -3.17688502	          0.05695202	          0.18952490	        127.36417986	         18.21517219	         20.94483954	         88.55383743	        -48.75088516	          2.89838973	        106.62486533	        -44.34025850	        -19.29159228	        -11.56788917	        -42.03582908	          0.64628713	          1.79188716	
          0.39381818	         -0.00001299	          0.00000317	         -0.00000431	          0.00002174	         -0.00001200	         -0.00000095	         24.05784425	        -10.25913912	          9.59173033	       -107.04970442	        -32.38609521	         49.33887614	         -3.20969571	        -11.11369171	         -0.11147497	         -2.79991642	         -0.50627358	         -2.49851678	          0.02192515	          0.15840577	         91.46017205	         10.97322402	         19.02406569	         70.58612417	        -29.25307252	        -10.14119594	         62.31829094	        -21.51266650	         -4.63972723	         54.12244760	        -17.79713479	         -1.37523228	          1.52939814	
          0.41472727	          0.00000288	          0.00000156	          0.00000212	         -0.00001688	         -0.00001144	          0.00000044	         25.18275031	        -12.78884338	          7.78526018	        -84.12586216	        -13.56464392	         34.94910016	        -17.40578072	          6.72133327	          0.49682058	         -3.74836553	         -0.60377144	         -0.15444880	          0.01285729	          0.14498154	         57.52755259	          0.02665616	          6.61268096	         29.55051843	         -5.99115978	        -10.27672423	         14.96189805	        -11.24873933	         -5.32053484	         62.27052547	          9.65914630	         -2.56894180	         -0.17928282	
          0.43563636	          0.00000348	          0.00000090	          0.00000095	         -0.00000895	         -0.00000830	          0.00000092	         19.86208146	        -17.12162266	          2.64573452	        -49.35431964	        -10.80295570	          5.33476354	        -20.23775030	         13.88974745	          0.78570010	          1.17687515	         -0.34241036	         -1.05605317	         -0.00121011	         -0.06713107	         26.86668059	         -9.49388636	          0.66597912	         19.60503229	         -2.29815303	         -5.32889464	         -2.65670467	         -8.45574250	         -5.15913343	         44.09523753	         22.40755932	         -1.72459633	         -0.82191311	
          0.45654545	          0.00000307	         -0.00000060	          0.00000002	         -0.00000630	         -0.00000664	         -0.00000172	         19.82417137	         -6.97166373	          1.78251759	        -10.45948357	          1.97843026	          0.04098271	        -18.21912228	          2.71015420	          1.09660376	          0.39494989	         -0.38880114	         -0.01979351	         -0.01526953	         -0.02316488	         -7.57787862	        -15.76573199	         -5.71534265	         21.42161750	         -3.71556845	         -4.55339806	         -1.69040037	         -6.14506284	         -4.28611885	         28.49067973	         23.10903535	         -1.09906684	         -0.83743498	
          0.47745455	          0.00000133	         -0.00000085	         -0.00000085	         -0.00000187	         -0.00000520	         -0.00000195	         19.43187420	         -5.78809872	         -6.39600689	         26.13405241	         13.28606641	        -17.28378020	         -9.15295975	          4.41828168	          1.37186034	          0.41397764	          0.02392122	          1.08901555	         -0.04063700	         -0.03409245	        -45.33814648	        -16.24128767	         -4.52164357	         26.66376426	         -6.48790246	         -6.09752482	          4.69247670	         -6.01313468	         -5.08297267	         24.66274507	         21.33048253	         -0.95523664	         -0.75305831	
          0.49836364	         -0.00000010	          0.00000072	         -0.00000016	          0.00000091	         -0.00000035	         -0.00000046	         22.33446008	         -3.11172732	        -14.44646694	         59.24668139	         20.30431640	        -35.16798541	          8.94469259	         29.08889630	          1.54291103	          0.94588597	          0.71164830	          2.04277957	         -0.07634526	         -0.09084121	        -91.03060173	        -15.76768553	         -3.70377804	         35.70528225	        -10.66969161	         -9.07737127	         17.92789514	         -6.24001935	         -7.33782878	         30.63388167	         15.83466824	         -1.17213108	         -0.53578883	
          0.51927273	         -0.00000031	          0.00000233	          0.00000162	          0.00000160	          0.00000788	          0.00000223	         16.70609142	          5.66781076	         -7.26038900	         92.13043217	         25.68640590	        -47.41748340	         12.11738064	         83.17785945	          2.93609020	          2.81776371	         -0.00683298	          2.52984617	         -0.13105906	         -0.23882803	       -136.86796687	         -5.38345437	          6.10408565	         53.52675926	        -12.67900273	        -12.50635008	         40.87432672	         -7.06421443	        -10.88522577	         37.96834366	          3.75441525	         -1.43987411	         -0.08034166	
          0.54018182	         -0.00000263	          0.00000228	          0.00000220	         -0.00000094	          0.00002108	          0.00000167	         -4.45614233	         62.44429177	         34.82379127	        117.74166876	         20.58192841	         -1.94716867	        -18.31235052	        131.90646411	         -3.42346654	          3.42668679	         -0.94920328	          0.23974984	          0.17357490	         -0.27518592	       -148.35525505	          4.20500857	         20.17668501	         79.42136064	        -10.02228946	        -10.58236854	         69.18297202	         -9.57711919	        -11.68189259	         39.79829822	        -12.89027221	         -1.47145671	          0.48292891	
          0.56109091	         -0.00001801	         -0.00000236	         -0.00000399	          0.00001286	          0.00005409	         -0.00000899	        -21.24692317	         19.68634359	         18.20103731	        -14.61668257	        -17.25806091	         13.67054118	         58.62183574	          2.03076294	         -1.04581139	         -2.41238749	         -0.33006514	         -0.36855411	         -0.00871120	          0.15319190	         39.09392512	          6.65968649	         17.89097906	         96.40975375	          3.76557430	          5.80296387	         79.14071055	          4.27224435	          0.66451478	          6.57545339	        -50.51384831	         -0.30040545	          1.55720875	
